<svg width="240" height="524" viewBox="0 0 240 524" fill="none" xmlns="http://www.w3.org/2000/svg">
<line x1="7.5" y1="491.009" x2="7.5" y2="12.9999" stroke="black" stroke-width="3"/>
<path d="M30.68 20C30.48 20 30.38 19.9267 30.38 19.78C30.38 19.66 30.4667 19.58 30.64 19.54L31.1 19.46C31.38 19.4067 31.56 19.3333 31.64 19.24C31.7333 19.1467 31.78 18.96 31.78 18.68V6.92C31.78 6.64 31.7333 6.45333 31.64 6.36C31.56 6.26667 31.38 6.19333 31.1 6.14L30.64 6.06C30.4667 6.02 30.38 5.94 30.38 5.82C30.38 5.67333 30.48 5.6 30.68 5.6H34.3C34.5 5.6 34.6 5.67333 34.6 5.82C34.6 5.94 34.5133 6.02 34.34 6.06L33.88 6.14C33.6 6.19333 33.4133 6.26667 33.32 6.36C33.24 6.45333 33.2 6.64 33.2 6.92V18.68C33.2 18.96 33.24 19.1467 33.32 19.24C33.4133 19.3333 33.6 19.4067 33.88 19.46L34.34 19.54C34.5133 19.58 34.6 19.66 34.6 19.78C34.6 19.9267 34.5 20 34.3 20H30.68ZM35.3805 20C35.2205 20 35.1405 19.9267 35.1405 19.78C35.1405 19.6467 35.2138 19.5667 35.3605 19.54L35.6405 19.5C35.9205 19.46 36.1271 19.38 36.2605 19.26C36.3938 19.14 36.4605 18.94 36.4605 18.66V7.2C36.4605 6.96 36.4205 6.79333 36.3405 6.7C36.2738 6.60667 36.1471 6.55333 35.9605 6.54L35.5005 6.48C35.3538 6.45333 35.2805 6.37333 35.2805 6.24C35.2805 6.10667 35.3538 6.02667 35.5005 6C35.8738 5.92 36.1938 5.82667 36.4605 5.72C36.7271 5.61333 36.9471 5.50667 37.1205 5.4C37.3338 5.26667 37.4938 5.2 37.6005 5.2C37.7471 5.2 37.8205 5.30667 37.8205 5.52V18.66C37.8205 18.94 37.8605 19.14 37.9405 19.26C38.0338 19.3667 38.2205 19.44 38.5005 19.48L38.9605 19.54C39.1071 19.5667 39.1805 19.6467 39.1805 19.78C39.1805 19.9267 39.1005 20 38.9405 20H35.3805ZM39.775 20C39.615 20 39.535 19.9267 39.535 19.78C39.535 19.6467 39.6083 19.5667 39.755 19.54L40.035 19.5C40.315 19.46 40.5217 19.38 40.655 19.26C40.7883 19.14 40.855 18.94 40.855 18.66V7.2C40.855 6.96 40.815 6.79333 40.735 6.7C40.6683 6.60667 40.5417 6.55333 40.355 6.54L39.895 6.48C39.7483 6.45333 39.675 6.37333 39.675 6.24C39.675 6.10667 39.7483 6.02667 39.895 6C40.2683 5.92 40.5883 5.82667 40.855 5.72C41.1217 5.61333 41.3417 5.50667 41.515 5.4C41.7283 5.26667 41.8883 5.2 41.995 5.2C42.1417 5.2 42.215 5.30667 42.215 5.52V18.66C42.215 18.94 42.255 19.14 42.335 19.26C42.4283 19.3667 42.615 19.44 42.895 19.48L43.355 19.54C43.5017 19.5667 43.575 19.6467 43.575 19.78C43.575 19.9267 43.495 20 43.335 20H39.775ZM47.1895 20.18C46.8562 20.18 46.5362 20.1067 46.2295 19.96C45.9229 19.8133 45.6695 19.58 45.4695 19.26C45.2695 18.94 45.1695 18.5133 45.1695 17.98V11.02C45.1695 10.78 45.1295 10.6133 45.0495 10.52C44.9829 10.4267 44.8562 10.3733 44.6695 10.36L44.3295 10.32C44.1029 10.2933 43.9895 10.2067 43.9895 10.06C43.9895 9.88667 44.1162 9.8 44.3695 9.8H46.2295C46.4295 9.8 46.5295 9.9 46.5295 10.1V17.56C46.5295 18.1733 46.6429 18.6133 46.8695 18.88C47.1095 19.1333 47.4362 19.26 47.8495 19.26C48.2629 19.26 48.6295 19.1467 48.9495 18.92C49.2695 18.68 49.5229 18.3667 49.7095 17.98C49.9095 17.58 50.0095 17.1467 50.0095 16.68V11.02C50.0095 10.78 49.9695 10.6133 49.8895 10.52C49.8229 10.4267 49.6962 10.3733 49.5095 10.36L49.1695 10.32C48.9429 10.2933 48.8295 10.2067 48.8295 10.06C48.8295 9.88667 48.9562 9.8 49.2095 9.8H51.0695C51.2695 9.8 51.3695 9.9 51.3695 10.1V17.86C51.3695 18.1 51.4029 18.2667 51.4695 18.36C51.5495 18.44 51.6829 18.4933 51.8695 18.52L52.2895 18.58C52.4629 18.5933 52.5495 18.66 52.5495 18.78C52.5495 18.9 52.4429 18.98 52.2295 19.02C51.8162 19.0733 51.4829 19.18 51.2295 19.34C50.9895 19.5 50.7762 19.6933 50.5895 19.92C50.4695 20.04 50.3695 20.1 50.2895 20.1C50.1695 20.1 50.1095 20.02 50.1095 19.86V18.94C50.1095 18.8333 50.0695 18.7733 49.9895 18.76C49.9229 18.7333 49.8495 18.76 49.7695 18.84C49.2762 19.3333 48.8362 19.68 48.4495 19.88C48.0762 20.08 47.6562 20.18 47.1895 20.18ZM55.4716 20.18C55.1649 20.18 54.8382 20.14 54.4916 20.06C54.1449 19.9933 53.8649 19.9067 53.6516 19.8C53.5316 19.7333 53.4716 19.62 53.4716 19.46L53.4116 17.22C53.4116 16.9933 53.4982 16.88 53.6716 16.88C53.8182 16.88 53.9182 16.9867 53.9716 17.2C54.1982 18.1467 54.4716 18.7933 54.7916 19.14C55.1249 19.4867 55.5249 19.66 55.9916 19.66C56.3782 19.66 56.6982 19.5133 56.9516 19.22C57.2049 18.9133 57.3316 18.4933 57.3316 17.96C57.3316 17.4267 57.1849 16.9533 56.8916 16.54C56.5982 16.1267 56.1049 15.6733 55.4116 15.18C54.7182 14.7133 54.2116 14.2467 53.8916 13.78C53.5716 13.3 53.4116 12.78 53.4116 12.22C53.4116 11.46 53.6782 10.8467 54.2116 10.38C54.7449 9.91333 55.4516 9.68 56.3316 9.68C56.5982 9.68 56.8582 9.71333 57.1116 9.78C57.3649 9.83333 57.5916 9.92667 57.7916 10.06C57.9116 10.14 57.9716 10.2467 57.9716 10.38L58.0116 12.58C58.0116 12.78 57.9316 12.88 57.7716 12.88C57.6782 12.88 57.6116 12.8533 57.5716 12.8C57.5316 12.7333 57.4982 12.6533 57.4716 12.56C57.2049 11.6933 56.9382 11.0933 56.6716 10.76C56.4049 10.4133 56.0782 10.24 55.6916 10.24C55.3449 10.24 55.0582 10.36 54.8316 10.6C54.6049 10.84 54.4916 11.14 54.4916 11.5C54.4916 11.9667 54.6316 12.3733 54.9116 12.72C55.1916 13.0667 55.6982 13.4933 56.4316 14C57.0982 14.48 57.5982 15 57.9316 15.56C58.2782 16.1067 58.4516 16.7067 58.4516 17.36C58.4516 18.2133 58.1782 18.9 57.6316 19.42C57.0849 19.9267 56.3649 20.18 55.4716 20.18ZM61.9439 20.18C61.4772 20.18 61.0906 20.02 60.7839 19.7C60.4906 19.3667 60.3439 18.8267 60.3439 18.08V10.6C60.3439 10.44 60.2639 10.36 60.1039 10.36H59.5239C59.3106 10.36 59.2039 10.28 59.2039 10.12C59.2039 10.0133 59.2639 9.92 59.3839 9.84C59.8239 9.53333 60.1772 9.20667 60.4439 8.86C60.7106 8.5 60.9439 8.01333 61.1439 7.4C61.2372 7.12 61.3506 6.98 61.4839 6.98C61.6306 6.98 61.7039 7.08667 61.7039 7.3V9.52C61.7039 9.70667 61.7972 9.8 61.9839 9.8H63.2839C63.4972 9.8 63.6039 9.89333 63.6039 10.08C63.6039 10.2667 63.4972 10.36 63.2839 10.36H61.9839C61.7972 10.36 61.7039 10.4533 61.7039 10.64V18.1C61.7039 18.3933 61.7506 18.6267 61.8439 18.8C61.9372 18.96 62.1106 19.04 62.3639 19.04C62.6439 19.04 62.8706 18.9 63.0439 18.62C63.2306 18.34 63.3506 17.8867 63.4039 17.26C63.4306 17.0733 63.5172 16.98 63.6639 16.98C63.8239 16.98 63.9039 17.08 63.9039 17.28C63.8639 18.3067 63.6506 19.0467 63.2639 19.5C62.8906 19.9533 62.4506 20.18 61.9439 20.18ZM67.2597 11.08C67.8064 10.1467 68.4664 9.68 69.2397 9.68C69.6797 9.68 70.0064 9.81333 70.2197 10.08C70.433 10.3333 70.5397 10.62 70.5397 10.94C70.5397 11.1933 70.473 11.4 70.3397 11.56C70.2197 11.72 70.0264 11.8 69.7597 11.8C69.5464 11.8 69.3864 11.7533 69.2797 11.66C69.1864 11.5533 69.1064 11.4333 69.0397 11.3C68.9864 11.1667 68.9197 11.0533 68.8397 10.96C68.7597 10.8533 68.6264 10.8 68.4397 10.8C68.1997 10.8 67.973 10.9467 67.7597 11.24C67.5464 11.52 67.3664 11.9 67.2197 12.38C67.0864 12.86 67.0197 13.4067 67.0197 14.02V18.66C67.0197 18.94 67.0597 19.14 67.1397 19.26C67.233 19.38 67.4197 19.4533 67.6997 19.48L68.2397 19.54C68.3864 19.5667 68.4597 19.64 68.4597 19.76C68.4597 19.92 68.3597 20 68.1597 20H64.7797C64.5797 20 64.4797 19.9267 64.4797 19.78C64.4797 19.66 64.5664 19.58 64.7397 19.54L64.9797 19.5C65.2597 19.4467 65.4397 19.3667 65.5197 19.26C65.613 19.14 65.6597 18.94 65.6597 18.66V11.94C65.6597 11.7 65.6197 11.54 65.5397 11.46C65.473 11.3667 65.3464 11.3067 65.1597 11.28L64.7397 11.22C64.5664 11.2067 64.4797 11.1333 64.4797 11C64.4797 10.8933 64.5864 10.82 64.7997 10.78C65.213 10.7133 65.5264 10.6067 65.7397 10.46C65.9664 10.3133 66.1997 10.1333 66.4397 9.92C66.5597 9.8 66.6597 9.74 66.7397 9.74C66.8597 9.74 66.9197 9.82 66.9197 9.98V11.06C66.9197 11.1533 66.9597 11.2133 67.0397 11.24C67.1197 11.2533 67.193 11.2 67.2597 11.08ZM72.5953 20.18C72.0353 20.18 71.5753 20.0067 71.2153 19.66C70.8553 19.3 70.6753 18.8267 70.6753 18.24C70.6753 17.6667 70.8553 17.1267 71.2153 16.62C71.5753 16.1 72.0686 15.6333 72.6953 15.22C73.322 14.8067 74.0353 14.4733 74.8353 14.22C75.0086 14.1667 75.0953 14.0533 75.0953 13.88V12.06C75.0953 11.42 74.9953 10.9667 74.7953 10.7C74.5953 10.42 74.322 10.28 73.9753 10.28C73.642 10.28 73.3353 10.4333 73.0553 10.74C72.7886 11.0333 72.5953 11.5333 72.4753 12.24C72.4086 12.6667 72.262 12.98 72.0353 13.18C71.822 13.3667 71.602 13.46 71.3753 13.46C71.002 13.46 70.8153 13.2733 70.8153 12.9C70.8153 12.5133 70.922 12.1333 71.1353 11.76C71.362 11.3733 71.6553 11.0267 72.0153 10.72C72.3753 10.4 72.7686 10.1467 73.1953 9.96C73.622 9.77333 74.0486 9.68 74.4753 9.68C75.7953 9.68 76.4553 10.4467 76.4553 11.98V18.1C76.4553 18.66 76.5953 18.94 76.8753 18.94C77.0486 18.94 77.2086 18.8267 77.3553 18.6C77.502 18.36 77.5753 17.96 77.5753 17.4C77.5753 17.1867 77.662 17.08 77.8353 17.08C77.9953 17.08 78.0753 17.1933 78.0753 17.42C78.0753 18.3933 77.902 19.1 77.5553 19.54C77.222 19.9667 76.842 20.18 76.4153 20.18C76.0953 20.18 75.842 20.0533 75.6553 19.8C75.4686 19.5333 75.342 19.22 75.2753 18.86C75.262 18.7267 75.202 18.66 75.0953 18.66C75.002 18.6467 74.9086 18.7067 74.8153 18.84C74.4953 19.28 74.1686 19.6133 73.8353 19.84C73.502 20.0667 73.0886 20.18 72.5953 20.18ZM73.1353 19.26C73.482 19.26 73.802 19.14 74.0953 18.9C74.3886 18.6467 74.6286 18.3133 74.8153 17.9C75.002 17.4867 75.0953 17.02 75.0953 16.5V15.04C75.0953 14.7867 74.9553 14.7133 74.6753 14.82C73.862 15.1133 73.2286 15.52 72.7753 16.04C72.3353 16.5467 72.1153 17.16 72.1153 17.88C72.1153 18.8 72.4553 19.26 73.1353 19.26ZM81.0064 20.18C80.5397 20.18 80.1531 20.02 79.8464 19.7C79.5531 19.3667 79.4064 18.8267 79.4064 18.08V10.6C79.4064 10.44 79.3264 10.36 79.1664 10.36H78.5864C78.3731 10.36 78.2664 10.28 78.2664 10.12C78.2664 10.0133 78.3264 9.92 78.4464 9.84C78.8864 9.53333 79.2397 9.20667 79.5064 8.86C79.7731 8.5 80.0064 8.01333 80.2064 7.4C80.2997 7.12 80.4131 6.98 80.5464 6.98C80.6931 6.98 80.7664 7.08667 80.7664 7.3V9.52C80.7664 9.70667 80.8597 9.8 81.0464 9.8H82.3464C82.5597 9.8 82.6664 9.89333 82.6664 10.08C82.6664 10.2667 82.5597 10.36 82.3464 10.36H81.0464C80.8597 10.36 80.7664 10.4533 80.7664 10.64V18.1C80.7664 18.3933 80.8131 18.6267 80.9064 18.8C80.9997 18.96 81.1731 19.04 81.4264 19.04C81.7064 19.04 81.9331 18.9 82.1064 18.62C82.2931 18.34 82.4131 17.8867 82.4664 17.26C82.4931 17.0733 82.5797 16.98 82.7264 16.98C82.8864 16.98 82.9664 17.08 82.9664 17.28C82.9264 18.3067 82.7131 19.0467 82.3264 19.5C81.9531 19.9533 81.5131 20.18 81.0064 20.18ZM87.3022 20.18C86.6222 20.18 86.0089 19.9533 85.4622 19.5C84.9289 19.0333 84.5022 18.4 84.1822 17.6C83.8622 16.8 83.7022 15.9067 83.7022 14.92C83.7022 13.9333 83.8622 13.0467 84.1822 12.26C84.5022 11.4733 84.9355 10.8467 85.4822 10.38C86.0289 9.91333 86.6355 9.68 87.3022 9.68C87.9822 9.68 88.5889 9.91333 89.1222 10.38C89.6689 10.8467 90.1022 11.4733 90.4222 12.26C90.7422 13.0467 90.9022 13.9333 90.9022 14.92C90.9022 15.9067 90.7422 16.8 90.4222 17.6C90.1155 18.4 89.6889 19.0333 89.1422 19.5C88.5955 19.9533 87.9822 20.18 87.3022 20.18ZM87.3022 19.68C88.6889 19.68 89.3822 18.0933 89.3822 14.92C89.3822 11.76 88.6889 10.18 87.3022 10.18C85.9155 10.18 85.2222 11.76 85.2222 14.92C85.2222 18.0933 85.9155 19.68 87.3022 19.68ZM94.4863 11.08C95.0329 10.1467 95.6929 9.68 96.4663 9.68C96.9063 9.68 97.2329 9.81333 97.4463 10.08C97.6596 10.3333 97.7663 10.62 97.7663 10.94C97.7663 11.1933 97.6996 11.4 97.5663 11.56C97.4463 11.72 97.2529 11.8 96.9863 11.8C96.7729 11.8 96.6129 11.7533 96.5063 11.66C96.4129 11.5533 96.3329 11.4333 96.2663 11.3C96.2129 11.1667 96.1463 11.0533 96.0663 10.96C95.9863 10.8533 95.8529 10.8 95.6663 10.8C95.4263 10.8 95.1996 10.9467 94.9863 11.24C94.7729 11.52 94.5929 11.9 94.4463 12.38C94.3129 12.86 94.2463 13.4067 94.2463 14.02V18.66C94.2463 18.94 94.2863 19.14 94.3663 19.26C94.4596 19.38 94.6463 19.4533 94.9263 19.48L95.4663 19.54C95.6129 19.5667 95.6863 19.64 95.6863 19.76C95.6863 19.92 95.5863 20 95.3863 20H92.0063C91.8063 20 91.7063 19.9267 91.7063 19.78C91.7063 19.66 91.7929 19.58 91.9663 19.54L92.2063 19.5C92.4863 19.4467 92.6663 19.3667 92.7463 19.26C92.8396 19.14 92.8863 18.94 92.8863 18.66V11.94C92.8863 11.7 92.8463 11.54 92.7663 11.46C92.6996 11.3667 92.5729 11.3067 92.3863 11.28L91.9663 11.22C91.7929 11.2067 91.7063 11.1333 91.7063 11C91.7063 10.8933 91.8129 10.82 92.0263 10.78C92.4396 10.7133 92.7529 10.6067 92.9663 10.46C93.1929 10.3133 93.4263 10.1333 93.6663 9.92C93.7863 9.8 93.8863 9.74 93.9663 9.74C94.0863 9.74 94.1463 9.82 94.1463 9.98V11.06C94.1463 11.1533 94.1863 11.2133 94.2663 11.24C94.3463 11.2533 94.4196 11.2 94.4863 11.08Z" fill="black"/>
<path d="M30.68 133C30.48 133 30.38 132.927 30.38 132.78C30.38 132.66 30.4667 132.58 30.64 132.54L31.1 132.46C31.38 132.407 31.56 132.333 31.64 132.24C31.7333 132.147 31.78 131.96 31.78 131.68V119.92C31.78 119.64 31.7333 119.453 31.64 119.36C31.56 119.267 31.38 119.193 31.1 119.14L30.64 119.06C30.4667 119.02 30.38 118.94 30.38 118.82C30.38 118.673 30.48 118.6 30.68 118.6H37.12C37.4267 118.6 37.5933 118.753 37.62 119.06L37.78 122.38C37.8067 122.607 37.72 122.72 37.52 122.72C37.36 122.72 37.2667 122.633 37.24 122.46L37.14 121.8C37.0333 121.107 36.8467 120.567 36.58 120.18C36.3133 119.793 36.0133 119.52 35.68 119.36C35.3467 119.187 35.0267 119.1 34.72 119.1C34.1333 119.1 33.7333 119.193 33.52 119.38C33.3067 119.567 33.2 119.853 33.2 120.24V124.96C33.2 125.147 33.2933 125.24 33.48 125.24H34.18C34.7667 125.24 35.1267 124.927 35.26 124.3L35.48 123.3C35.52 123.127 35.62 123.04 35.78 123.04C35.94 123.04 36.02 123.153 36.02 123.38V127.88C36.02 128.107 35.94 128.22 35.78 128.22C35.62 128.22 35.52 128.133 35.48 127.96L35.26 126.98C35.1667 126.513 35.0333 126.207 34.86 126.06C34.7 125.913 34.4667 125.84 34.16 125.84H33.48C33.2933 125.84 33.2 125.933 33.2 126.12V131.58C33.2 131.86 33.24 132.06 33.32 132.18C33.4133 132.287 33.6 132.36 33.88 132.4L34.82 132.54C34.9667 132.567 35.04 132.64 35.04 132.76C35.04 132.92 34.94 133 34.74 133H30.68ZM40.2097 120.9C39.9297 120.9 39.6897 120.8 39.4897 120.6C39.303 120.4 39.2097 120.147 39.2097 119.84C39.2097 119.533 39.303 119.287 39.4897 119.1C39.6897 118.9 39.9297 118.8 40.2097 118.8C40.4897 118.8 40.723 118.9 40.9097 119.1C41.0964 119.287 41.1897 119.533 41.1897 119.84C41.1897 120.147 41.0964 120.4 40.9097 120.6C40.723 120.8 40.4897 120.9 40.2097 120.9ZM38.5297 133C38.3297 133 38.2297 132.927 38.2297 132.78C38.2297 132.66 38.3164 132.58 38.4897 132.54L38.7297 132.5C39.063 132.447 39.2764 132.367 39.3697 132.26C39.463 132.14 39.5097 131.94 39.5097 131.66V124.94C39.5097 124.7 39.4697 124.54 39.3897 124.46C39.323 124.367 39.1964 124.307 39.0097 124.28L38.5897 124.22C38.4164 124.207 38.3297 124.133 38.3297 124C38.3297 123.893 38.4364 123.82 38.6497 123.78C39.063 123.713 39.3964 123.607 39.6497 123.46C39.903 123.313 40.1497 123.133 40.3897 122.92C40.5097 122.8 40.6097 122.74 40.6897 122.74C40.8097 122.74 40.8697 122.82 40.8697 122.98V131.66C40.8697 131.94 40.9097 132.14 40.9897 132.26C41.0697 132.38 41.223 132.453 41.4497 132.48L41.9497 132.54C42.0964 132.567 42.1697 132.64 42.1697 132.76C42.1697 132.92 42.0697 133 41.8697 133H38.5297ZM45.9428 137.3C44.9295 137.3 44.1295 137.093 43.5428 136.68C42.9561 136.28 42.6628 135.793 42.6628 135.22C42.6628 134.98 42.6961 134.76 42.7628 134.56C42.8295 134.373 42.9695 134.153 43.1828 133.9C43.4095 133.647 43.7495 133.32 44.2028 132.92C44.3628 132.773 44.4428 132.64 44.4428 132.52C44.4428 132.387 44.3628 132.287 44.2028 132.22C43.7228 132.02 43.4361 131.767 43.3428 131.46C43.2495 131.14 43.3628 130.847 43.6828 130.58L45.1228 129.34C45.2828 129.207 45.2761 129.093 45.1028 129C44.5561 128.733 44.1228 128.32 43.8028 127.76C43.4828 127.2 43.3228 126.6 43.3228 125.96C43.3228 125.347 43.4561 124.793 43.7228 124.3C43.9895 123.807 44.3495 123.413 44.8028 123.12C45.2561 122.827 45.7628 122.68 46.3228 122.68C46.6428 122.68 46.9495 122.733 47.2428 122.84C47.4295 122.907 47.5428 122.847 47.5828 122.66C47.7028 122.153 47.9228 121.76 48.2428 121.48C48.5761 121.187 48.9028 121.04 49.2228 121.04C49.5295 121.04 49.7761 121.133 49.9628 121.32C50.1628 121.493 50.2628 121.713 50.2628 121.98C50.2628 122.207 50.1961 122.387 50.0628 122.52C49.9295 122.653 49.7628 122.72 49.5628 122.72C49.3895 122.72 49.2628 122.687 49.1828 122.62C49.1028 122.553 49.0295 122.487 48.9628 122.42C48.8961 122.353 48.7895 122.32 48.6428 122.32C48.3228 122.32 48.1228 122.493 48.0428 122.84C48.0028 122.973 48.0028 123.087 48.0428 123.18C48.0961 123.273 48.1695 123.367 48.2628 123.46C48.5828 123.767 48.8295 124.14 49.0028 124.58C49.1895 125.02 49.2828 125.507 49.2828 126.04C49.2828 126.68 49.1495 127.253 48.8828 127.76C48.6295 128.267 48.2761 128.667 47.8228 128.96C47.3828 129.253 46.8828 129.4 46.3228 129.4C46.0828 129.4 45.8761 129.453 45.7028 129.56C45.5295 129.653 45.3561 129.793 45.1828 129.98L44.8428 130.36C44.6695 130.573 44.6161 130.78 44.6828 130.98C44.7628 131.167 44.9495 131.26 45.2428 131.26H46.9628C47.9228 131.26 48.6828 131.5 49.2428 131.98C49.8028 132.447 50.0828 133.093 50.0828 133.92C50.0828 134.573 49.8961 135.153 49.5228 135.66C49.1495 136.167 48.6495 136.567 48.0228 136.86C47.4095 137.153 46.7161 137.3 45.9428 137.3ZM46.3028 128.9C46.7828 128.9 47.1628 128.64 47.4428 128.12C47.7228 127.6 47.8628 126.893 47.8628 126C47.8628 125.133 47.7161 124.44 47.4228 123.92C47.1428 123.387 46.7695 123.12 46.3028 123.12C45.8361 123.12 45.4561 123.387 45.1628 123.92C44.8828 124.44 44.7428 125.133 44.7428 126C44.7428 126.893 44.8828 127.6 45.1628 128.12C45.4428 128.64 45.8228 128.9 46.3028 128.9ZM46.1828 136.86C46.6628 136.86 47.1028 136.753 47.5028 136.54C47.9028 136.327 48.2161 136.027 48.4428 135.64C48.6828 135.267 48.8028 134.84 48.8028 134.36C48.8028 133.76 48.6228 133.3 48.2628 132.98C47.9161 132.647 47.4228 132.48 46.7828 132.48H46.3228C45.9095 132.48 45.5961 132.52 45.3828 132.6C45.1828 132.68 44.9895 132.82 44.8028 133.02C44.3895 133.46 44.1295 133.813 44.0228 134.08C43.9161 134.347 43.8628 134.62 43.8628 134.9C43.8628 135.487 44.0628 135.96 44.4628 136.32C44.8761 136.68 45.4495 136.86 46.1828 136.86ZM51.0297 133C50.8297 133 50.7297 132.927 50.7297 132.78C50.7297 132.66 50.8164 132.58 50.9897 132.54L51.2297 132.5C51.5097 132.447 51.6897 132.367 51.7697 132.26C51.863 132.14 51.9097 131.94 51.9097 131.66V124.94C51.9097 124.7 51.8697 124.54 51.7897 124.46C51.723 124.367 51.5964 124.307 51.4097 124.28L50.9897 124.22C50.8164 124.207 50.7297 124.133 50.7297 124C50.7297 123.893 50.8364 123.82 51.0497 123.78C51.463 123.713 51.7764 123.607 51.9897 123.46C52.2164 123.313 52.4497 123.133 52.6897 122.92C52.8097 122.8 52.9097 122.74 52.9897 122.74C53.1097 122.74 53.1697 122.82 53.1697 122.98V123.88C53.1697 123.973 53.2097 124.047 53.2897 124.1C53.3697 124.14 53.4564 124.113 53.5497 124.02C54.0964 123.5 54.5697 123.147 54.9697 122.96C55.383 122.773 55.7964 122.68 56.2097 122.68C56.5964 122.68 56.9364 122.787 57.2297 123C57.5364 123.2 57.763 123.507 57.9097 123.92C57.9497 124.027 58.0164 124.093 58.1097 124.12C58.2164 124.133 58.3164 124.093 58.4097 124C58.9564 123.493 59.4297 123.147 59.8297 122.96C60.2297 122.773 60.6364 122.68 61.0497 122.68C61.6097 122.68 62.063 122.893 62.4097 123.32C62.7697 123.733 62.9497 124.347 62.9497 125.16V131.66C62.9497 131.94 62.9897 132.14 63.0697 132.26C63.163 132.367 63.3497 132.44 63.6297 132.48L64.0697 132.54C64.2164 132.567 64.2897 132.647 64.2897 132.78C64.2897 132.927 64.2097 133 64.0497 133H60.6297C60.443 133 60.3497 132.927 60.3497 132.78C60.3497 132.647 60.423 132.567 60.5697 132.54L60.8497 132.5C61.1564 132.46 61.3564 132.38 61.4497 132.26C61.543 132.14 61.5897 131.94 61.5897 131.66V125.38C61.5897 124.727 61.4697 124.267 61.2297 124C61.003 123.733 60.6897 123.6 60.2897 123.6C59.8897 123.6 59.523 123.727 59.1897 123.98C58.8697 124.22 58.6097 124.547 58.4097 124.96C58.2097 125.36 58.1097 125.807 58.1097 126.3V131.66C58.1097 131.94 58.1564 132.14 58.2497 132.26C58.343 132.367 58.5364 132.44 58.8297 132.48L59.2697 132.54C59.4164 132.567 59.4897 132.647 59.4897 132.78C59.4897 132.927 59.4097 133 59.2497 133H55.8497C55.663 133 55.5697 132.927 55.5697 132.78C55.5697 132.647 55.643 132.567 55.7897 132.54L56.0697 132.5C56.3497 132.46 56.5297 132.38 56.6097 132.26C56.703 132.14 56.7497 131.94 56.7497 131.66V125.38C56.7497 124.727 56.6297 124.267 56.3897 124C56.163 123.733 55.8497 123.6 55.4497 123.6C55.0497 123.6 54.683 123.727 54.3497 123.98C54.0297 124.22 53.7697 124.547 53.5697 124.96C53.3697 125.36 53.2697 125.807 53.2697 126.3V131.66C53.2697 131.94 53.3097 132.14 53.3897 132.26C53.483 132.38 53.6697 132.453 53.9497 132.48L54.4897 132.54C54.6364 132.567 54.7097 132.64 54.7097 132.76C54.7097 132.92 54.6097 133 54.4097 133H51.0297ZM66.9117 133.18C66.3517 133.18 65.8917 133.007 65.5317 132.66C65.1717 132.3 64.9917 131.827 64.9917 131.24C64.9917 130.667 65.1717 130.127 65.5317 129.62C65.8917 129.1 66.3851 128.633 67.0117 128.22C67.6384 127.807 68.3517 127.473 69.1517 127.22C69.3251 127.167 69.4117 127.053 69.4117 126.88V125.06C69.4117 124.42 69.3117 123.967 69.1117 123.7C68.9117 123.42 68.6384 123.28 68.2917 123.28C67.9584 123.28 67.6517 123.433 67.3717 123.74C67.1051 124.033 66.9117 124.533 66.7917 125.24C66.7251 125.667 66.5784 125.98 66.3517 126.18C66.1384 126.367 65.9184 126.46 65.6917 126.46C65.3184 126.46 65.1317 126.273 65.1317 125.9C65.1317 125.513 65.2384 125.133 65.4517 124.76C65.6784 124.373 65.9717 124.027 66.3317 123.72C66.6917 123.4 67.0851 123.147 67.5117 122.96C67.9384 122.773 68.3651 122.68 68.7917 122.68C70.1117 122.68 70.7717 123.447 70.7717 124.98V131.1C70.7717 131.66 70.9117 131.94 71.1917 131.94C71.3651 131.94 71.5251 131.827 71.6717 131.6C71.8184 131.36 71.8917 130.96 71.8917 130.4C71.8917 130.187 71.9784 130.08 72.1517 130.08C72.3117 130.08 72.3917 130.193 72.3917 130.42C72.3917 131.393 72.2184 132.1 71.8717 132.54C71.5384 132.967 71.1584 133.18 70.7317 133.18C70.4117 133.18 70.1584 133.053 69.9717 132.8C69.7851 132.533 69.6584 132.22 69.5917 131.86C69.5784 131.727 69.5184 131.66 69.4117 131.66C69.3184 131.647 69.2251 131.707 69.1317 131.84C68.8117 132.28 68.4851 132.613 68.1517 132.84C67.8184 133.067 67.4051 133.18 66.9117 133.18ZM67.4517 132.26C67.7984 132.26 68.1184 132.14 68.4117 131.9C68.7051 131.647 68.9451 131.313 69.1317 130.9C69.3184 130.487 69.4117 130.02 69.4117 129.5V128.04C69.4117 127.787 69.2717 127.713 68.9917 127.82C68.1784 128.113 67.5451 128.52 67.0917 129.04C66.6517 129.547 66.4317 130.16 66.4317 130.88C66.4317 131.8 66.7717 132.26 67.4517 132.26Z" fill="black"/>
<path d="M34.58 249.2C34.5267 249.2 34.4667 249.18 34.4 249.14C34.3333 249.1 34.2867 249.013 34.26 248.88L31.1 236.2C31.0067 235.827 30.9 235.567 30.78 235.42C30.6733 235.273 30.4867 235.173 30.22 235.12L29.92 235.06C29.7333 235.02 29.64 234.933 29.64 234.8C29.64 234.667 29.74 234.6 29.94 234.6H33.36C33.5467 234.6 33.64 234.673 33.64 234.82C33.64 234.967 33.5267 235.047 33.3 235.06L32.92 235.1C32.6933 235.113 32.5467 235.187 32.48 235.32C32.4267 235.44 32.4333 235.647 32.5 235.94L34.82 245.56C34.8467 245.64 34.8867 245.68 34.94 245.68C35.0067 245.68 35.0467 245.64 35.06 245.56L37.36 236.36C37.5467 235.6 37.3467 235.18 36.76 235.1L36.46 235.06C36.2333 235.02 36.12 234.94 36.12 234.82C36.12 234.673 36.2133 234.6 36.4 234.6H39.2C39.4 234.6 39.5 234.667 39.5 234.8C39.5 234.933 39.4067 235.02 39.22 235.06L38.92 235.12C38.6667 235.173 38.4667 235.307 38.32 235.52C38.1867 235.72 38.0733 236.007 37.98 236.38L34.88 248.88C34.8533 249.013 34.8067 249.1 34.74 249.14C34.6867 249.18 34.6333 249.2 34.58 249.2ZM40.9323 236.9C40.6523 236.9 40.4123 236.8 40.2123 236.6C40.0257 236.4 39.9323 236.147 39.9323 235.84C39.9323 235.533 40.0257 235.287 40.2123 235.1C40.4123 234.9 40.6523 234.8 40.9323 234.8C41.2123 234.8 41.4457 234.9 41.6323 235.1C41.819 235.287 41.9123 235.533 41.9123 235.84C41.9123 236.147 41.819 236.4 41.6323 236.6C41.4457 236.8 41.2123 236.9 40.9323 236.9ZM39.2523 249C39.0523 249 38.9523 248.927 38.9523 248.78C38.9523 248.66 39.039 248.58 39.2123 248.54L39.4523 248.5C39.7857 248.447 39.999 248.367 40.0923 248.26C40.1857 248.14 40.2323 247.94 40.2323 247.66V240.94C40.2323 240.7 40.1923 240.54 40.1123 240.46C40.0457 240.367 39.919 240.307 39.7323 240.28L39.3123 240.22C39.139 240.207 39.0523 240.133 39.0523 240C39.0523 239.893 39.159 239.82 39.3723 239.78C39.7857 239.713 40.119 239.607 40.3723 239.46C40.6257 239.313 40.8723 239.133 41.1123 238.92C41.2323 238.8 41.3323 238.74 41.4123 238.74C41.5323 238.74 41.5923 238.82 41.5923 238.98V247.66C41.5923 247.94 41.6323 248.14 41.7123 248.26C41.7923 248.38 41.9457 248.453 42.1723 248.48L42.6723 248.54C42.819 248.567 42.8923 248.64 42.8923 248.76C42.8923 248.92 42.7923 249 42.5923 249H39.2523ZM45.7255 249.18C45.4188 249.18 45.0921 249.14 44.7455 249.06C44.3988 248.993 44.1188 248.907 43.9055 248.8C43.7855 248.733 43.7255 248.62 43.7255 248.46L43.6655 246.22C43.6655 245.993 43.7521 245.88 43.9255 245.88C44.0721 245.88 44.1721 245.987 44.2255 246.2C44.4521 247.147 44.7255 247.793 45.0455 248.14C45.3788 248.487 45.7788 248.66 46.2455 248.66C46.6321 248.66 46.9521 248.513 47.2055 248.22C47.4588 247.913 47.5855 247.493 47.5855 246.96C47.5855 246.427 47.4388 245.953 47.1455 245.54C46.8521 245.127 46.3588 244.673 45.6655 244.18C44.9721 243.713 44.4655 243.247 44.1455 242.78C43.8255 242.3 43.6655 241.78 43.6655 241.22C43.6655 240.46 43.9321 239.847 44.4655 239.38C44.9988 238.913 45.7055 238.68 46.5855 238.68C46.8521 238.68 47.1121 238.713 47.3655 238.78C47.6188 238.833 47.8455 238.927 48.0455 239.06C48.1655 239.14 48.2255 239.247 48.2255 239.38L48.2655 241.58C48.2655 241.78 48.1855 241.88 48.0255 241.88C47.9321 241.88 47.8655 241.853 47.8255 241.8C47.7855 241.733 47.7521 241.653 47.7255 241.56C47.4588 240.693 47.1921 240.093 46.9255 239.76C46.6588 239.413 46.3321 239.24 45.9455 239.24C45.5988 239.24 45.3121 239.36 45.0855 239.6C44.8588 239.84 44.7455 240.14 44.7455 240.5C44.7455 240.967 44.8855 241.373 45.1655 241.72C45.4455 242.067 45.9521 242.493 46.6855 243C47.3521 243.48 47.8521 244 48.1855 244.56C48.5321 245.107 48.7055 245.707 48.7055 246.36C48.7055 247.213 48.4321 247.9 47.8855 248.42C47.3388 248.927 46.6188 249.18 45.7255 249.18ZM52.6778 249.18C52.3445 249.18 52.0245 249.107 51.7178 248.96C51.4111 248.813 51.1578 248.58 50.9578 248.26C50.7578 247.94 50.6578 247.513 50.6578 246.98V240.02C50.6578 239.78 50.6178 239.613 50.5378 239.52C50.4711 239.427 50.3445 239.373 50.1578 239.36L49.8178 239.32C49.5911 239.293 49.4778 239.207 49.4778 239.06C49.4778 238.887 49.6045 238.8 49.8578 238.8H51.7178C51.9178 238.8 52.0178 238.9 52.0178 239.1V246.56C52.0178 247.173 52.1311 247.613 52.3578 247.88C52.5978 248.133 52.9245 248.26 53.3378 248.26C53.7511 248.26 54.1178 248.147 54.4378 247.92C54.7578 247.68 55.0111 247.367 55.1978 246.98C55.3978 246.58 55.4978 246.147 55.4978 245.68V240.02C55.4978 239.78 55.4578 239.613 55.3778 239.52C55.3111 239.427 55.1845 239.373 54.9978 239.36L54.6578 239.32C54.4311 239.293 54.3178 239.207 54.3178 239.06C54.3178 238.887 54.4445 238.8 54.6978 238.8H56.5578C56.7578 238.8 56.8578 238.9 56.8578 239.1V246.86C56.8578 247.1 56.8911 247.267 56.9578 247.36C57.0378 247.44 57.1711 247.493 57.3578 247.52L57.7778 247.58C57.9511 247.593 58.0378 247.66 58.0378 247.78C58.0378 247.9 57.9311 247.98 57.7178 248.02C57.3045 248.073 56.9711 248.18 56.7178 248.34C56.4778 248.5 56.2645 248.693 56.0778 248.92C55.9578 249.04 55.8578 249.1 55.7778 249.1C55.6578 249.1 55.5978 249.02 55.5978 248.86V247.94C55.5978 247.833 55.5578 247.773 55.4778 247.76C55.4111 247.733 55.3378 247.76 55.2578 247.84C54.7645 248.333 54.3245 248.68 53.9378 248.88C53.5645 249.08 53.1445 249.18 52.6778 249.18ZM60.7398 249.18C60.1798 249.18 59.7198 249.007 59.3598 248.66C58.9998 248.3 58.8198 247.827 58.8198 247.24C58.8198 246.667 58.9998 246.127 59.3598 245.62C59.7198 245.1 60.2132 244.633 60.8398 244.22C61.4665 243.807 62.1798 243.473 62.9798 243.22C63.1532 243.167 63.2398 243.053 63.2398 242.88V241.06C63.2398 240.42 63.1398 239.967 62.9398 239.7C62.7398 239.42 62.4665 239.28 62.1198 239.28C61.7865 239.28 61.4798 239.433 61.1998 239.74C60.9332 240.033 60.7398 240.533 60.6198 241.24C60.5532 241.667 60.4065 241.98 60.1798 242.18C59.9665 242.367 59.7465 242.46 59.5198 242.46C59.1465 242.46 58.9598 242.273 58.9598 241.9C58.9598 241.513 59.0665 241.133 59.2798 240.76C59.5065 240.373 59.7998 240.027 60.1598 239.72C60.5198 239.4 60.9132 239.147 61.3398 238.96C61.7665 238.773 62.1932 238.68 62.6198 238.68C63.9398 238.68 64.5998 239.447 64.5998 240.98V247.1C64.5998 247.66 64.7398 247.94 65.0198 247.94C65.1932 247.94 65.3532 247.827 65.4998 247.6C65.6465 247.36 65.7198 246.96 65.7198 246.4C65.7198 246.187 65.8065 246.08 65.9798 246.08C66.1398 246.08 66.2198 246.193 66.2198 246.42C66.2198 247.393 66.0465 248.1 65.6998 248.54C65.3665 248.967 64.9865 249.18 64.5598 249.18C64.2398 249.18 63.9865 249.053 63.7998 248.8C63.6132 248.533 63.4865 248.22 63.4198 247.86C63.4065 247.727 63.3465 247.66 63.2398 247.66C63.1465 247.647 63.0532 247.707 62.9598 247.84C62.6398 248.28 62.3132 248.613 61.9798 248.84C61.6465 249.067 61.2332 249.18 60.7398 249.18ZM61.2798 248.26C61.6265 248.26 61.9465 248.14 62.2398 247.9C62.5332 247.647 62.7732 247.313 62.9598 246.9C63.1465 246.487 63.2398 246.02 63.2398 245.5V244.04C63.2398 243.787 63.0998 243.713 62.8198 243.82C62.0065 244.113 61.3732 244.52 60.9198 245.04C60.4798 245.547 60.2598 246.16 60.2598 246.88C60.2598 247.8 60.5998 248.26 61.2798 248.26ZM66.7281 249C66.5681 249 66.4881 248.927 66.4881 248.78C66.4881 248.647 66.5615 248.567 66.7081 248.54L66.9881 248.5C67.2681 248.46 67.4748 248.38 67.6081 248.26C67.7415 248.14 67.8081 247.94 67.8081 247.66V236.2C67.8081 235.96 67.7681 235.793 67.6881 235.7C67.6215 235.607 67.4948 235.553 67.3081 235.54L66.8481 235.48C66.7015 235.453 66.6281 235.373 66.6281 235.24C66.6281 235.107 66.7015 235.027 66.8481 235C67.2215 234.92 67.5415 234.827 67.8081 234.72C68.0748 234.613 68.2948 234.507 68.4681 234.4C68.6815 234.267 68.8415 234.2 68.9481 234.2C69.0948 234.2 69.1681 234.307 69.1681 234.52V247.66C69.1681 247.94 69.2081 248.14 69.2881 248.26C69.3815 248.367 69.5681 248.44 69.8481 248.48L70.3081 248.54C70.4548 248.567 70.5281 248.647 70.5281 248.78C70.5281 248.927 70.4481 249 70.2881 249H66.7281ZM77.8011 249.18C77.5344 249.18 77.2344 249.153 76.9011 249.1C76.5811 249.047 76.2744 248.98 75.9811 248.9C75.7011 248.82 75.4811 248.733 75.3211 248.64C75.2278 248.587 75.1544 248.533 75.1011 248.48C75.0611 248.413 75.0411 248.307 75.0411 248.16L74.9411 245.02C74.9411 244.753 75.0278 244.62 75.2011 244.62C75.3478 244.62 75.4478 244.74 75.5011 244.98L75.6811 245.74C76.1344 247.647 76.9811 248.6 78.2211 248.6C78.8878 248.6 79.4144 248.38 79.8011 247.94C80.2011 247.487 80.4011 246.853 80.4011 246.04C80.4011 245.253 80.1944 244.52 79.7811 243.84C79.3811 243.16 78.7344 242.487 77.8411 241.82C76.8544 241.113 76.1344 240.433 75.6811 239.78C75.2278 239.113 75.0011 238.407 75.0011 237.66C75.0011 236.673 75.3411 235.887 76.0211 235.3C76.7144 234.7 77.5944 234.4 78.6611 234.4C79.0611 234.4 79.4478 234.447 79.8211 234.54C80.1944 234.633 80.5011 234.767 80.7411 234.94C80.8211 234.993 80.8811 235.053 80.9211 235.12C80.9744 235.187 81.0011 235.273 81.0011 235.38L81.0611 238.4C81.0611 238.627 80.9744 238.74 80.8011 238.74C80.6811 238.74 80.5944 238.647 80.5411 238.46L80.4011 237.96C80.1078 236.933 79.8011 236.187 79.4811 235.72C79.1744 235.24 78.7278 235 78.1411 235C77.5678 235 77.1078 235.187 76.7611 235.56C76.4278 235.933 76.2611 236.46 76.2611 237.14C76.2611 237.713 76.4478 238.26 76.8211 238.78C77.1944 239.3 77.8478 239.933 78.7811 240.68C79.7811 241.493 80.5078 242.28 80.9611 243.04C81.4278 243.787 81.6611 244.587 81.6611 245.44C81.6611 246.187 81.4944 246.84 81.1611 247.4C80.8278 247.96 80.3678 248.4 79.7811 248.72C79.2078 249.027 78.5478 249.18 77.8011 249.18ZM85.2056 249.18C84.739 249.18 84.3523 249.02 84.0456 248.7C83.7523 248.367 83.6056 247.827 83.6056 247.08V239.6C83.6056 239.44 83.5256 239.36 83.3656 239.36H82.7856C82.5723 239.36 82.4656 239.28 82.4656 239.12C82.4656 239.013 82.5256 238.92 82.6456 238.84C83.0856 238.533 83.439 238.207 83.7056 237.86C83.9723 237.5 84.2056 237.013 84.4056 236.4C84.499 236.12 84.6123 235.98 84.7456 235.98C84.8923 235.98 84.9656 236.087 84.9656 236.3V238.52C84.9656 238.707 85.059 238.8 85.2456 238.8H86.5456C86.759 238.8 86.8656 238.893 86.8656 239.08C86.8656 239.267 86.759 239.36 86.5456 239.36H85.2456C85.059 239.36 84.9656 239.453 84.9656 239.64V247.1C84.9656 247.393 85.0123 247.627 85.1056 247.8C85.199 247.96 85.3723 248.04 85.6256 248.04C85.9056 248.04 86.1323 247.9 86.3056 247.62C86.4923 247.34 86.6123 246.887 86.6656 246.26C86.6923 246.073 86.779 245.98 86.9256 245.98C87.0856 245.98 87.1656 246.08 87.1656 246.28C87.1256 247.307 86.9123 248.047 86.5256 248.5C86.1523 248.953 85.7123 249.18 85.2056 249.18ZM90.7052 249.18C90.3718 249.18 90.0518 249.107 89.7452 248.96C89.4385 248.813 89.1852 248.58 88.9852 248.26C88.7852 247.94 88.6852 247.513 88.6852 246.98V240.02C88.6852 239.78 88.6452 239.613 88.5652 239.52C88.4985 239.427 88.3718 239.373 88.1852 239.36L87.8452 239.32C87.6185 239.293 87.5052 239.207 87.5052 239.06C87.5052 238.887 87.6318 238.8 87.8852 238.8H89.7452C89.9452 238.8 90.0452 238.9 90.0452 239.1V246.56C90.0452 247.173 90.1585 247.613 90.3852 247.88C90.6252 248.133 90.9518 248.26 91.3652 248.26C91.7785 248.26 92.1452 248.147 92.4652 247.92C92.7852 247.68 93.0385 247.367 93.2252 246.98C93.4252 246.58 93.5252 246.147 93.5252 245.68V240.02C93.5252 239.78 93.4852 239.613 93.4052 239.52C93.3385 239.427 93.2118 239.373 93.0252 239.36L92.6852 239.32C92.4585 239.293 92.3452 239.207 92.3452 239.06C92.3452 238.887 92.4718 238.8 92.7252 238.8H94.5852C94.7852 238.8 94.8852 238.9 94.8852 239.1V246.86C94.8852 247.1 94.9185 247.267 94.9852 247.36C95.0652 247.44 95.1985 247.493 95.3852 247.52L95.8052 247.58C95.9785 247.593 96.0652 247.66 96.0652 247.78C96.0652 247.9 95.9585 247.98 95.7452 248.02C95.3318 248.073 94.9985 248.18 94.7452 248.34C94.5052 248.5 94.2918 248.693 94.1052 248.92C93.9852 249.04 93.8852 249.1 93.8052 249.1C93.6852 249.1 93.6252 249.02 93.6252 248.86V247.94C93.6252 247.833 93.5852 247.773 93.5052 247.76C93.4385 247.733 93.3652 247.76 93.2852 247.84C92.7918 248.333 92.3518 248.68 91.9652 248.88C91.5918 249.08 91.1718 249.18 90.7052 249.18ZM99.9872 249.18C99.4005 249.18 98.8739 248.98 98.4072 248.58C97.9539 248.167 97.6005 247.6 97.3472 246.88C97.0939 246.147 96.9672 245.3 96.9672 244.34C96.9672 243.22 97.1405 242.24 97.4872 241.4C97.8339 240.547 98.3139 239.88 98.9272 239.4C99.5405 238.92 100.234 238.68 101.007 238.68C101.194 238.68 101.381 238.7 101.567 238.74C101.754 238.767 101.934 238.82 102.107 238.9C102.321 239.007 102.427 238.96 102.427 238.76V236.2C102.427 235.96 102.387 235.793 102.307 235.7C102.241 235.607 102.114 235.553 101.927 235.54L101.407 235.48C101.261 235.453 101.187 235.373 101.187 235.24C101.187 235.107 101.261 235.027 101.407 235C101.834 234.92 102.174 234.827 102.427 234.72C102.694 234.613 102.914 234.507 103.087 234.4C103.301 234.267 103.461 234.2 103.567 234.2C103.714 234.2 103.787 234.307 103.787 234.52V247.1C103.787 247.66 103.927 247.94 104.207 247.94C104.381 247.94 104.541 247.827 104.687 247.6C104.834 247.36 104.907 246.96 104.907 246.4C104.907 246.187 104.994 246.08 105.167 246.08C105.327 246.08 105.407 246.193 105.407 246.42C105.407 247.393 105.241 248.1 104.907 248.54C104.574 248.967 104.194 249.18 103.767 249.18C103.381 249.18 103.087 249.053 102.887 248.8C102.687 248.533 102.554 248.22 102.487 247.86C102.474 247.753 102.427 247.7 102.347 247.7C102.267 247.687 102.194 247.733 102.127 247.84C101.754 248.36 101.414 248.713 101.107 248.9C100.801 249.087 100.427 249.18 99.9872 249.18ZM100.427 248.26C100.774 248.26 101.094 248.147 101.387 247.92C101.694 247.68 101.941 247.36 102.127 246.96C102.327 246.56 102.427 246.113 102.427 245.62V241.12C102.427 240.52 102.287 240.047 102.007 239.7C101.741 239.353 101.387 239.18 100.947 239.18C100.201 239.18 99.5939 239.62 99.1272 240.5C98.6739 241.367 98.4472 242.553 98.4472 244.06C98.4472 245.433 98.6205 246.48 98.9672 247.2C99.3272 247.907 99.8139 248.26 100.427 248.26ZM107.788 236.9C107.508 236.9 107.268 236.8 107.068 236.6C106.881 236.4 106.788 236.147 106.788 235.84C106.788 235.533 106.881 235.287 107.068 235.1C107.268 234.9 107.508 234.8 107.788 234.8C108.068 234.8 108.301 234.9 108.488 235.1C108.674 235.287 108.768 235.533 108.768 235.84C108.768 236.147 108.674 236.4 108.488 236.6C108.301 236.8 108.068 236.9 107.788 236.9ZM106.108 249C105.908 249 105.808 248.927 105.808 248.78C105.808 248.66 105.894 248.58 106.068 248.54L106.308 248.5C106.641 248.447 106.854 248.367 106.948 248.26C107.041 248.14 107.088 247.94 107.088 247.66V240.94C107.088 240.7 107.048 240.54 106.968 240.46C106.901 240.367 106.774 240.307 106.588 240.28L106.168 240.22C105.994 240.207 105.908 240.133 105.908 240C105.908 239.893 106.014 239.82 106.228 239.78C106.641 239.713 106.974 239.607 107.228 239.46C107.481 239.313 107.728 239.133 107.968 238.92C108.088 238.8 108.188 238.74 108.268 238.74C108.388 238.74 108.448 238.82 108.448 238.98V247.66C108.448 247.94 108.488 248.14 108.568 248.26C108.648 248.38 108.801 248.453 109.028 248.48L109.528 248.54C109.674 248.567 109.748 248.64 109.748 248.76C109.748 248.92 109.648 249 109.448 249H106.108ZM114.021 249.18C113.341 249.18 112.728 248.953 112.181 248.5C111.648 248.033 111.221 247.4 110.901 246.6C110.581 245.8 110.421 244.907 110.421 243.92C110.421 242.933 110.581 242.047 110.901 241.26C111.221 240.473 111.654 239.847 112.201 239.38C112.748 238.913 113.354 238.68 114.021 238.68C114.701 238.68 115.308 238.913 115.841 239.38C116.388 239.847 116.821 240.473 117.141 241.26C117.461 242.047 117.621 242.933 117.621 243.92C117.621 244.907 117.461 245.8 117.141 246.6C116.834 247.4 116.408 248.033 115.861 248.5C115.314 248.953 114.701 249.18 114.021 249.18ZM114.021 248.68C115.408 248.68 116.101 247.093 116.101 243.92C116.101 240.76 115.408 239.18 114.021 239.18C112.634 239.18 111.941 240.76 111.941 243.92C111.941 247.093 112.634 248.68 114.021 248.68ZM127.243 249.18C126.257 249.18 125.39 248.873 124.643 248.26C123.91 247.647 123.337 246.787 122.923 245.68C122.523 244.56 122.323 243.24 122.323 241.72C122.323 240.253 122.543 238.973 122.983 237.88C123.437 236.773 124.037 235.92 124.783 235.32C125.543 234.707 126.383 234.4 127.303 234.4C127.85 234.4 128.33 234.453 128.743 234.56C129.157 234.653 129.523 234.78 129.843 234.94C130.003 235.033 130.083 235.173 130.083 235.36L130.143 238.4C130.143 238.627 130.063 238.74 129.903 238.74C129.757 238.74 129.663 238.653 129.623 238.48L129.423 237.74C129.143 236.7 128.817 235.98 128.443 235.58C128.083 235.18 127.65 234.98 127.143 234.98C126.21 234.98 125.43 235.56 124.803 236.72C124.19 237.867 123.883 239.533 123.883 241.72C123.883 243.213 124.037 244.473 124.343 245.5C124.663 246.527 125.07 247.3 125.563 247.82C126.07 248.34 126.603 248.6 127.163 248.6C127.763 248.6 128.243 248.413 128.603 248.04C128.977 247.667 129.29 246.947 129.543 245.88L129.783 244.9C129.823 244.7 129.93 244.613 130.103 244.64C130.25 244.667 130.323 244.78 130.323 244.98L130.243 248.22C130.243 248.407 130.157 248.547 129.983 248.64C129.663 248.8 129.283 248.927 128.843 249.02C128.417 249.127 127.883 249.18 127.243 249.18ZM135.193 249.18C134.513 249.18 133.899 248.953 133.353 248.5C132.819 248.033 132.393 247.4 132.073 246.6C131.753 245.8 131.593 244.907 131.593 243.92C131.593 242.933 131.753 242.047 132.073 241.26C132.393 240.473 132.826 239.847 133.373 239.38C133.919 238.913 134.526 238.68 135.193 238.68C135.873 238.68 136.479 238.913 137.013 239.38C137.559 239.847 137.993 240.473 138.313 241.26C138.633 242.047 138.793 242.933 138.793 243.92C138.793 244.907 138.633 245.8 138.313 246.6C138.006 247.4 137.579 248.033 137.033 248.5C136.486 248.953 135.873 249.18 135.193 249.18ZM135.193 248.68C136.579 248.68 137.273 247.093 137.273 243.92C137.273 240.76 136.579 239.18 135.193 239.18C133.806 239.18 133.113 240.76 133.113 243.92C133.113 247.093 133.806 248.68 135.193 248.68ZM142.917 249.18C142.33 249.18 141.804 248.98 141.337 248.58C140.884 248.167 140.53 247.6 140.277 246.88C140.024 246.147 139.897 245.3 139.897 244.34C139.897 243.22 140.07 242.24 140.417 241.4C140.764 240.547 141.244 239.88 141.857 239.4C142.47 238.92 143.164 238.68 143.937 238.68C144.124 238.68 144.31 238.7 144.497 238.74C144.684 238.767 144.864 238.82 145.037 238.9C145.25 239.007 145.357 238.96 145.357 238.76V236.2C145.357 235.96 145.317 235.793 145.237 235.7C145.17 235.607 145.044 235.553 144.857 235.54L144.337 235.48C144.19 235.453 144.117 235.373 144.117 235.24C144.117 235.107 144.19 235.027 144.337 235C144.764 234.92 145.104 234.827 145.357 234.72C145.624 234.613 145.844 234.507 146.017 234.4C146.23 234.267 146.39 234.2 146.497 234.2C146.644 234.2 146.717 234.307 146.717 234.52V247.1C146.717 247.66 146.857 247.94 147.137 247.94C147.31 247.94 147.47 247.827 147.617 247.6C147.764 247.36 147.837 246.96 147.837 246.4C147.837 246.187 147.924 246.08 148.097 246.08C148.257 246.08 148.337 246.193 148.337 246.42C148.337 247.393 148.17 248.1 147.837 248.54C147.504 248.967 147.124 249.18 146.697 249.18C146.31 249.18 146.017 249.053 145.817 248.8C145.617 248.533 145.484 248.22 145.417 247.86C145.404 247.753 145.357 247.7 145.277 247.7C145.197 247.687 145.124 247.733 145.057 247.84C144.684 248.36 144.344 248.713 144.037 248.9C143.73 249.087 143.357 249.18 142.917 249.18ZM143.357 248.26C143.704 248.26 144.024 248.147 144.317 247.92C144.624 247.68 144.87 247.36 145.057 246.96C145.257 246.56 145.357 246.113 145.357 245.62V241.12C145.357 240.52 145.217 240.047 144.937 239.7C144.67 239.353 144.317 239.18 143.877 239.18C143.13 239.18 142.524 239.62 142.057 240.5C141.604 241.367 141.377 242.553 141.377 244.06C141.377 245.433 141.55 246.48 141.897 247.2C142.257 247.907 142.744 248.26 143.357 248.26ZM152.278 249.18C151.638 249.18 151.064 248.967 150.558 248.54C150.051 248.113 149.644 247.513 149.338 246.74C149.044 245.953 148.898 245.047 148.898 244.02C148.898 242.967 149.051 242.04 149.358 241.24C149.664 240.44 150.084 239.813 150.618 239.36C151.151 238.907 151.744 238.68 152.398 238.68C153.184 238.68 153.818 239.007 154.298 239.66C154.791 240.3 155.038 241.347 155.038 242.8C155.038 243.24 154.871 243.46 154.538 243.46H150.738C150.471 243.46 150.338 243.613 150.338 243.92C150.338 245.333 150.544 246.393 150.958 247.1C151.371 247.807 151.898 248.16 152.538 248.16C153.044 248.16 153.458 247.98 153.778 247.62C154.098 247.26 154.358 246.653 154.558 245.8C154.598 245.653 154.684 245.58 154.818 245.58C154.978 245.58 155.038 245.713 154.998 245.98C154.784 247.167 154.444 248 153.978 248.48C153.511 248.947 152.944 249.18 152.278 249.18ZM150.678 242.96H152.698C153.338 242.96 153.658 242.627 153.658 241.96C153.658 241.093 153.551 240.413 153.338 239.92C153.124 239.427 152.804 239.18 152.378 239.18C151.858 239.18 151.418 239.48 151.058 240.08C150.711 240.68 150.484 241.533 150.378 242.64C150.351 242.853 150.451 242.96 150.678 242.96Z" fill="black"/>
<path d="M30.68 370C30.48 370 30.38 369.927 30.38 369.78C30.38 369.66 30.4667 369.58 30.64 369.54L31.1 369.46C31.38 369.407 31.56 369.333 31.64 369.24C31.7333 369.147 31.78 368.96 31.78 368.68V356.92C31.78 356.64 31.7333 356.453 31.64 356.36C31.56 356.267 31.38 356.193 31.1 356.14L30.64 356.06C30.4667 356.02 30.38 355.94 30.38 355.82C30.38 355.673 30.48 355.6 30.68 355.6H34.34C34.54 355.6 34.64 355.68 34.64 355.84C34.64 355.96 34.5667 356.033 34.42 356.06L33.88 356.14C33.6 356.18 33.4133 356.253 33.32 356.36C33.24 356.467 33.2 356.66 33.2 356.94V362.34C33.2 362.473 33.24 362.553 33.32 362.58C33.4 362.607 33.4733 362.56 33.54 362.44L36.82 357.3C37.26 356.62 37.22 356.233 36.7 356.14L36.24 356.06C36.0667 356.02 35.98 355.933 35.98 355.8C35.98 355.667 36.0733 355.6 36.26 355.6H39.66C39.8467 355.6 39.94 355.673 39.94 355.82C39.94 355.967 39.8533 356.047 39.68 356.06L39.3 356.1C38.8867 356.14 38.5467 356.26 38.28 356.46C38.0133 356.66 37.7133 357.02 37.38 357.54L35.12 361.08C34.9867 361.307 34.98 361.527 35.1 361.74L38.86 368.82C38.9667 369.033 39.0733 369.187 39.18 369.28C39.3 369.373 39.44 369.433 39.6 369.46L40.08 369.54C40.24 369.553 40.32 369.633 40.32 369.78C40.32 369.927 40.2267 370 40.04 370H36.48C36.2933 370 36.2 369.927 36.2 369.78C36.2 369.647 36.2867 369.567 36.46 369.54L36.8 369.5C37.32 369.433 37.4267 369.107 37.12 368.52L34.24 363.04C34.1867 362.933 34.1267 362.88 34.06 362.88C33.9933 362.867 33.9267 362.913 33.86 363.02L33.44 363.68C33.3467 363.813 33.28 363.94 33.24 364.06C33.2133 364.18 33.2 364.333 33.2 364.52V368.66C33.2 368.94 33.24 369.133 33.32 369.24C33.4133 369.347 33.6 369.42 33.88 369.46L34.42 369.54C34.5667 369.567 34.64 369.64 34.64 369.76C34.64 369.92 34.54 370 34.34 370H30.68ZM42.5136 361.08C43.0603 360.147 43.7203 359.68 44.4936 359.68C44.9336 359.68 45.2603 359.813 45.4736 360.08C45.6869 360.333 45.7936 360.62 45.7936 360.94C45.7936 361.193 45.7269 361.4 45.5936 361.56C45.4736 361.72 45.2803 361.8 45.0136 361.8C44.8003 361.8 44.6403 361.753 44.5336 361.66C44.4403 361.553 44.3603 361.433 44.2936 361.3C44.2403 361.167 44.1736 361.053 44.0936 360.96C44.0136 360.853 43.8803 360.8 43.6936 360.8C43.4536 360.8 43.2269 360.947 43.0136 361.24C42.8003 361.52 42.6203 361.9 42.4736 362.38C42.3403 362.86 42.2736 363.407 42.2736 364.02V368.66C42.2736 368.94 42.3136 369.14 42.3936 369.26C42.4869 369.38 42.6736 369.453 42.9536 369.48L43.4936 369.54C43.6403 369.567 43.7136 369.64 43.7136 369.76C43.7136 369.92 43.6136 370 43.4136 370H40.0336C39.8336 370 39.7336 369.927 39.7336 369.78C39.7336 369.66 39.8203 369.58 39.9936 369.54L40.2336 369.5C40.5136 369.447 40.6936 369.367 40.7736 369.26C40.8669 369.14 40.9136 368.94 40.9136 368.66V361.94C40.9136 361.7 40.8736 361.54 40.7936 361.46C40.7269 361.367 40.6003 361.307 40.4136 361.28L39.9936 361.22C39.8203 361.207 39.7336 361.133 39.7336 361C39.7336 360.893 39.8403 360.82 40.0536 360.78C40.4669 360.713 40.7803 360.607 40.9936 360.46C41.2203 360.313 41.4536 360.133 41.6936 359.92C41.8136 359.8 41.9136 359.74 41.9936 359.74C42.1136 359.74 42.1736 359.82 42.1736 359.98V361.06C42.1736 361.153 42.2136 361.213 42.2936 361.24C42.3736 361.253 42.4469 361.2 42.5136 361.08ZM49.6408 370.18C49.0008 370.18 48.4274 369.967 47.9208 369.54C47.4141 369.113 47.0074 368.513 46.7008 367.74C46.4074 366.953 46.2608 366.047 46.2608 365.02C46.2608 363.967 46.4141 363.04 46.7208 362.24C47.0274 361.44 47.4474 360.813 47.9808 360.36C48.5141 359.907 49.1074 359.68 49.7608 359.68C50.5474 359.68 51.1808 360.007 51.6608 360.66C52.1541 361.3 52.4008 362.347 52.4008 363.8C52.4008 364.24 52.2341 364.46 51.9008 364.46H48.1008C47.8341 364.46 47.7008 364.613 47.7008 364.92C47.7008 366.333 47.9074 367.393 48.3208 368.1C48.7341 368.807 49.2608 369.16 49.9008 369.16C50.4074 369.16 50.8208 368.98 51.1408 368.62C51.4608 368.26 51.7208 367.653 51.9208 366.8C51.9608 366.653 52.0474 366.58 52.1808 366.58C52.3408 366.58 52.4008 366.713 52.3608 366.98C52.1474 368.167 51.8074 369 51.3408 369.48C50.8741 369.947 50.3074 370.18 49.6408 370.18ZM48.0408 363.96H50.0608C50.7008 363.96 51.0208 363.627 51.0208 362.96C51.0208 362.093 50.9141 361.413 50.7008 360.92C50.4874 360.427 50.1674 360.18 49.7408 360.18C49.2208 360.18 48.7808 360.48 48.4208 361.08C48.0741 361.68 47.8474 362.533 47.7408 363.64C47.7141 363.853 47.8141 363.96 48.0408 363.96ZM55.3102 370.18C54.7502 370.18 54.2902 370.007 53.9302 369.66C53.5702 369.3 53.3902 368.827 53.3902 368.24C53.3902 367.667 53.5702 367.127 53.9302 366.62C54.2902 366.1 54.7835 365.633 55.4102 365.22C56.0368 364.807 56.7502 364.473 57.5502 364.22C57.7235 364.167 57.8102 364.053 57.8102 363.88V362.06C57.8102 361.42 57.7102 360.967 57.5102 360.7C57.3102 360.42 57.0368 360.28 56.6902 360.28C56.3568 360.28 56.0502 360.433 55.7702 360.74C55.5035 361.033 55.3102 361.533 55.1902 362.24C55.1235 362.667 54.9768 362.98 54.7502 363.18C54.5368 363.367 54.3168 363.46 54.0902 363.46C53.7168 363.46 53.5302 363.273 53.5302 362.9C53.5302 362.513 53.6368 362.133 53.8502 361.76C54.0768 361.373 54.3702 361.027 54.7302 360.72C55.0902 360.4 55.4835 360.147 55.9102 359.96C56.3368 359.773 56.7635 359.68 57.1902 359.68C58.5102 359.68 59.1702 360.447 59.1702 361.98V368.1C59.1702 368.66 59.3102 368.94 59.5902 368.94C59.7635 368.94 59.9235 368.827 60.0702 368.6C60.2168 368.36 60.2902 367.96 60.2902 367.4C60.2902 367.187 60.3768 367.08 60.5502 367.08C60.7102 367.08 60.7902 367.193 60.7902 367.42C60.7902 368.393 60.6168 369.1 60.2702 369.54C59.9368 369.967 59.5568 370.18 59.1302 370.18C58.8102 370.18 58.5568 370.053 58.3702 369.8C58.1835 369.533 58.0568 369.22 57.9902 368.86C57.9768 368.727 57.9168 368.66 57.8102 368.66C57.7168 368.647 57.6235 368.707 57.5302 368.84C57.2102 369.28 56.8835 369.613 56.5502 369.84C56.2168 370.067 55.8035 370.18 55.3102 370.18ZM55.8502 369.26C56.1968 369.26 56.5168 369.14 56.8102 368.9C57.1035 368.647 57.3435 368.313 57.5302 367.9C57.7168 367.487 57.8102 367.02 57.8102 366.5V365.04C57.8102 364.787 57.6702 364.713 57.3902 364.82C56.5768 365.113 55.9435 365.52 55.4902 366.04C55.0502 366.547 54.8302 367.16 54.8302 367.88C54.8302 368.8 55.1702 369.26 55.8502 369.26ZM63.7212 370.18C63.2546 370.18 62.8679 370.02 62.5613 369.7C62.2679 369.367 62.1213 368.827 62.1213 368.08V360.6C62.1213 360.44 62.0413 360.36 61.8813 360.36H61.3013C61.0879 360.36 60.9813 360.28 60.9813 360.12C60.9813 360.013 61.0413 359.92 61.1613 359.84C61.6013 359.533 61.9546 359.207 62.2213 358.86C62.4879 358.5 62.7213 358.013 62.9213 357.4C63.0146 357.12 63.1279 356.98 63.2613 356.98C63.4079 356.98 63.4813 357.087 63.4813 357.3V359.52C63.4813 359.707 63.5746 359.8 63.7613 359.8H65.0613C65.2746 359.8 65.3813 359.893 65.3813 360.08C65.3813 360.267 65.2746 360.36 65.0613 360.36H63.7613C63.5746 360.36 63.4813 360.453 63.4813 360.64V368.1C63.4813 368.393 63.5279 368.627 63.6213 368.8C63.7146 368.96 63.8879 369.04 64.1413 369.04C64.4213 369.04 64.6479 368.9 64.8213 368.62C65.0079 368.34 65.1279 367.887 65.1813 367.26C65.2079 367.073 65.2946 366.98 65.4413 366.98C65.6013 366.98 65.6813 367.08 65.6813 367.28C65.6413 368.307 65.4279 369.047 65.0413 369.5C64.6679 369.953 64.2279 370.18 63.7212 370.18ZM68.237 357.9C67.957 357.9 67.717 357.8 67.517 357.6C67.3304 357.4 67.237 357.147 67.237 356.84C67.237 356.533 67.3304 356.287 67.517 356.1C67.717 355.9 67.957 355.8 68.237 355.8C68.517 355.8 68.7504 355.9 68.937 356.1C69.1237 356.287 69.217 356.533 69.217 356.84C69.217 357.147 69.1237 357.4 68.937 357.6C68.7504 357.8 68.517 357.9 68.237 357.9ZM66.557 370C66.357 370 66.257 369.927 66.257 369.78C66.257 369.66 66.3437 369.58 66.517 369.54L66.757 369.5C67.0904 369.447 67.3037 369.367 67.397 369.26C67.4904 369.14 67.537 368.94 67.537 368.66V361.94C67.537 361.7 67.497 361.54 67.417 361.46C67.3504 361.367 67.2237 361.307 67.037 361.28L66.617 361.22C66.4437 361.207 66.357 361.133 66.357 361C66.357 360.893 66.4637 360.82 66.677 360.78C67.0904 360.713 67.4237 360.607 67.677 360.46C67.9304 360.313 68.177 360.133 68.417 359.92C68.537 359.8 68.637 359.74 68.717 359.74C68.837 359.74 68.897 359.82 68.897 359.98V368.66C68.897 368.94 68.937 369.14 69.017 369.26C69.097 369.38 69.2504 369.453 69.477 369.48L69.977 369.54C70.1237 369.567 70.197 369.64 70.197 369.76C70.197 369.92 70.097 370 69.897 370H66.557ZM74.2902 370.18C74.1702 370.18 74.0835 370.107 74.0302 369.96L71.3702 361.14C71.2768 360.82 71.1835 360.613 71.0902 360.52C71.0102 360.427 70.8768 360.36 70.6902 360.32L70.3902 360.26C70.2168 360.22 70.1302 360.133 70.1302 360C70.1302 359.867 70.2235 359.8 70.4102 359.8H73.7102C73.8968 359.8 73.9902 359.867 73.9902 360C73.9902 360.147 73.9035 360.233 73.7302 360.26L73.4102 360.3C73.0902 360.34 72.8902 360.42 72.8102 360.54C72.7302 360.647 72.7302 360.847 72.8102 361.14L74.4702 366.92C74.5102 367.067 74.5768 367.14 74.6702 367.14C74.7635 367.14 74.8302 367.067 74.8702 366.92L76.4902 361.5C76.5968 361.14 76.6235 360.873 76.5702 360.7C76.5302 360.513 76.3435 360.393 76.0102 360.34L75.5902 360.26C75.4168 360.22 75.3302 360.133 75.3302 360C75.3302 359.867 75.4235 359.8 75.6102 359.8H78.1502C78.3368 359.8 78.4302 359.873 78.4302 360.02C78.4302 360.153 78.3502 360.247 78.1902 360.3L78.0102 360.36C77.8102 360.427 77.6368 360.547 77.4902 360.72C77.3568 360.893 77.2235 361.193 77.0902 361.62L74.5502 369.96C74.4968 370.107 74.4102 370.18 74.2902 370.18ZM80.5417 357.9C80.2617 357.9 80.0217 357.8 79.8217 357.6C79.6351 357.4 79.5417 357.147 79.5417 356.84C79.5417 356.533 79.6351 356.287 79.8217 356.1C80.0217 355.9 80.2617 355.8 80.5417 355.8C80.8217 355.8 81.0551 355.9 81.2417 356.1C81.4284 356.287 81.5217 356.533 81.5217 356.84C81.5217 357.147 81.4284 357.4 81.2417 357.6C81.0551 357.8 80.8217 357.9 80.5417 357.9ZM78.8617 370C78.6617 370 78.5617 369.927 78.5617 369.78C78.5617 369.66 78.6484 369.58 78.8217 369.54L79.0617 369.5C79.3951 369.447 79.6084 369.367 79.7017 369.26C79.7951 369.14 79.8417 368.94 79.8417 368.66V361.94C79.8417 361.7 79.8017 361.54 79.7217 361.46C79.6551 361.367 79.5284 361.307 79.3417 361.28L78.9217 361.22C78.7484 361.207 78.6617 361.133 78.6617 361C78.6617 360.893 78.7684 360.82 78.9817 360.78C79.3951 360.713 79.7284 360.607 79.9817 360.46C80.2351 360.313 80.4817 360.133 80.7217 359.92C80.8417 359.8 80.9417 359.74 81.0217 359.74C81.1417 359.74 81.2017 359.82 81.2017 359.98V368.66C81.2017 368.94 81.2417 369.14 81.3217 369.26C81.4017 369.38 81.5551 369.453 81.7817 369.48L82.2817 369.54C82.4284 369.567 82.5017 369.64 82.5017 369.76C82.5017 369.92 82.4017 370 82.2017 370H78.8617ZM85.6548 370.18C85.1882 370.18 84.8015 370.02 84.4948 369.7C84.2015 369.367 84.0548 368.827 84.0548 368.08V360.6C84.0548 360.44 83.9748 360.36 83.8148 360.36H83.2348C83.0215 360.36 82.9148 360.28 82.9148 360.12C82.9148 360.013 82.9748 359.92 83.0948 359.84C83.5348 359.533 83.8882 359.207 84.1548 358.86C84.4215 358.5 84.6548 358.013 84.8548 357.4C84.9482 357.12 85.0615 356.98 85.1948 356.98C85.3415 356.98 85.4148 357.087 85.4148 357.3V359.52C85.4148 359.707 85.5082 359.8 85.6948 359.8H86.9948C87.2082 359.8 87.3148 359.893 87.3148 360.08C87.3148 360.267 87.2082 360.36 86.9948 360.36H85.6948C85.5082 360.36 85.4148 360.453 85.4148 360.64V368.1C85.4148 368.393 85.4615 368.627 85.5548 368.8C85.6482 368.96 85.8215 369.04 86.0748 369.04C86.3548 369.04 86.5815 368.9 86.7548 368.62C86.9415 368.34 87.0615 367.887 87.1148 367.26C87.1415 367.073 87.2282 366.98 87.3748 366.98C87.5348 366.98 87.6148 367.08 87.6148 367.28C87.5748 368.307 87.3615 369.047 86.9748 369.5C86.6015 369.953 86.1615 370.18 85.6548 370.18ZM91.7306 370.18C91.0906 370.18 90.5173 369.967 90.0106 369.54C89.504 369.113 89.0973 368.513 88.7906 367.74C88.4973 366.953 88.3506 366.047 88.3506 365.02C88.3506 363.967 88.504 363.04 88.8106 362.24C89.1173 361.44 89.5373 360.813 90.0706 360.36C90.604 359.907 91.1973 359.68 91.8506 359.68C92.6373 359.68 93.2706 360.007 93.7506 360.66C94.244 361.3 94.4906 362.347 94.4906 363.8C94.4906 364.24 94.324 364.46 93.9906 364.46H90.1906C89.924 364.46 89.7906 364.613 89.7906 364.92C89.7906 366.333 89.9973 367.393 90.4106 368.1C90.824 368.807 91.3506 369.16 91.9906 369.16C92.4973 369.16 92.9106 368.98 93.2306 368.62C93.5506 368.26 93.8106 367.653 94.0106 366.8C94.0506 366.653 94.1373 366.58 94.2706 366.58C94.4306 366.58 94.4906 366.713 94.4506 366.98C94.2373 368.167 93.8973 369 93.4306 369.48C92.964 369.947 92.3973 370.18 91.7306 370.18ZM90.1306 363.96H92.1506C92.7906 363.96 93.1106 363.627 93.1106 362.96C93.1106 362.093 93.004 361.413 92.7906 360.92C92.5773 360.427 92.2573 360.18 91.8306 360.18C91.3106 360.18 90.8706 360.48 90.5106 361.08C90.164 361.68 89.9373 362.533 89.8306 363.64C89.804 363.853 89.904 363.96 90.1306 363.96ZM97.94 370.18C97.4733 370.18 97.0867 370.02 96.78 369.7C96.4867 369.367 96.34 368.827 96.34 368.08V360.6C96.34 360.44 96.26 360.36 96.1 360.36H95.52C95.3067 360.36 95.2 360.28 95.2 360.12C95.2 360.013 95.26 359.92 95.38 359.84C95.82 359.533 96.1733 359.207 96.44 358.86C96.7067 358.5 96.94 358.013 97.14 357.4C97.2333 357.12 97.3467 356.98 97.48 356.98C97.6267 356.98 97.7 357.087 97.7 357.3V359.52C97.7 359.707 97.7933 359.8 97.98 359.8H99.28C99.4933 359.8 99.6 359.893 99.6 360.08C99.6 360.267 99.4933 360.36 99.28 360.36H97.98C97.7933 360.36 97.7 360.453 97.7 360.64V368.1C97.7 368.393 97.7467 368.627 97.84 368.8C97.9333 368.96 98.1067 369.04 98.36 369.04C98.64 369.04 98.8667 368.9 99.04 368.62C99.2267 368.34 99.3467 367.887 99.4 367.26C99.4267 367.073 99.5133 366.98 99.66 366.98C99.82 366.98 99.9 367.08 99.9 367.28C99.86 368.307 99.6467 369.047 99.26 369.5C98.8867 369.953 98.4467 370.18 97.94 370.18Z" fill="black"/>
<path d="M30.68 503C30.48 503 30.38 502.927 30.38 502.78C30.38 502.66 30.4667 502.58 30.64 502.54L31.1 502.46C31.38 502.407 31.56 502.333 31.64 502.24C31.7333 502.147 31.78 501.96 31.78 501.68V489.92C31.78 489.64 31.7333 489.453 31.64 489.36C31.56 489.267 31.38 489.193 31.1 489.14L30.64 489.06C30.4667 489.02 30.38 488.94 30.38 488.82C30.38 488.673 30.48 488.6 30.68 488.6H34.86C35.6467 488.6 36.34 488.773 36.94 489.12C37.54 489.453 38.0067 489.92 38.34 490.52C38.6733 491.12 38.84 491.813 38.84 492.6C38.84 493.36 38.6733 494.033 38.34 494.62C38.0067 495.207 37.5467 495.667 36.96 496C36.3733 496.32 35.6933 496.48 34.92 496.48H33.48C33.2933 496.48 33.2 496.573 33.2 496.76V501.6C33.2 501.88 33.2533 502.073 33.36 502.18C33.4667 502.273 33.7067 502.353 34.08 502.42L34.82 502.54C34.9667 502.567 35.04 502.64 35.04 502.76C35.04 502.92 34.94 503 34.74 503H30.68ZM33.2 494.88C33.2 495.613 33.6467 495.98 34.54 495.98C35.4067 495.98 36.0867 495.673 36.58 495.06C37.0867 494.447 37.34 493.607 37.34 492.54C37.34 491.447 37.0867 490.6 36.58 490C36.0733 489.4 35.3533 489.1 34.42 489.1C33.6067 489.1 33.2 489.367 33.2 489.9V494.88ZM39.8564 503C39.6964 503 39.6164 502.927 39.6164 502.78C39.6164 502.647 39.6897 502.567 39.8364 502.54L40.1164 502.5C40.3964 502.46 40.5764 502.38 40.6564 502.26C40.7497 502.14 40.7964 501.94 40.7964 501.66V490.2C40.7964 489.96 40.7564 489.8 40.6764 489.72C40.6097 489.627 40.4831 489.567 40.2964 489.54L39.8764 489.48C39.7297 489.453 39.6564 489.373 39.6564 489.24C39.6564 489.107 39.7297 489.027 39.8764 489C40.2497 488.92 40.5631 488.827 40.8164 488.72C41.0697 488.613 41.2831 488.507 41.4564 488.4C41.6697 488.267 41.8297 488.2 41.9364 488.2C42.0831 488.2 42.1564 488.307 42.1564 488.52V493.82C42.1564 493.94 42.1964 494.013 42.2764 494.04C42.3564 494.053 42.4564 494.007 42.5764 493.9C43.0831 493.433 43.5297 493.113 43.9164 492.94C44.3031 492.767 44.7097 492.68 45.1364 492.68C45.7631 492.68 46.2564 492.893 46.6164 493.32C46.9764 493.733 47.1564 494.347 47.1564 495.16V501.66C47.1564 501.94 47.1964 502.14 47.2764 502.26C47.3697 502.367 47.5564 502.44 47.8364 502.48L48.2764 502.54C48.4231 502.567 48.4964 502.647 48.4964 502.78C48.4964 502.927 48.4164 503 48.2564 503H44.8964C44.7097 503 44.6164 502.927 44.6164 502.78C44.6164 502.647 44.6897 502.567 44.8364 502.54L45.1164 502.5C45.3964 502.46 45.5764 502.38 45.6564 502.26C45.7497 502.14 45.7964 501.94 45.7964 501.66V495.38C45.7964 494.727 45.6764 494.267 45.4364 494C45.1964 493.733 44.8564 493.6 44.4164 493.6C43.9897 493.6 43.6031 493.727 43.2564 493.98C42.9231 494.22 42.6564 494.547 42.4564 494.96C42.2564 495.36 42.1564 495.807 42.1564 496.3V501.66C42.1564 501.94 42.1964 502.14 42.2764 502.26C42.3697 502.38 42.5564 502.453 42.8364 502.48L43.3764 502.54C43.5231 502.567 43.5964 502.647 43.5964 502.78C43.5964 502.927 43.5164 503 43.3564 503H39.8564ZM52.7709 503.18C52.0909 503.18 51.4776 502.953 50.9309 502.5C50.3976 502.033 49.9709 501.4 49.6509 500.6C49.3309 499.8 49.1709 498.907 49.1709 497.92C49.1709 496.933 49.3309 496.047 49.6509 495.26C49.9709 494.473 50.4043 493.847 50.9509 493.38C51.4976 492.913 52.1043 492.68 52.7709 492.68C53.4509 492.68 54.0576 492.913 54.5909 493.38C55.1376 493.847 55.5709 494.473 55.8909 495.26C56.2109 496.047 56.3709 496.933 56.3709 497.92C56.3709 498.907 56.2109 499.8 55.8909 500.6C55.5843 501.4 55.1576 502.033 54.6109 502.5C54.0643 502.953 53.4509 503.18 52.7709 503.18ZM52.7709 502.68C54.1576 502.68 54.8509 501.093 54.8509 497.92C54.8509 494.76 54.1576 493.18 52.7709 493.18C51.3843 493.18 50.6909 494.76 50.6909 497.92C50.6909 501.093 51.3843 502.68 52.7709 502.68ZM59.815 503.18C59.3483 503.18 58.9617 503.02 58.655 502.7C58.3617 502.367 58.215 501.827 58.215 501.08V493.6C58.215 493.44 58.135 493.36 57.975 493.36H57.395C57.1817 493.36 57.075 493.28 57.075 493.12C57.075 493.013 57.135 492.92 57.255 492.84C57.695 492.533 58.0483 492.207 58.315 491.86C58.5817 491.5 58.815 491.013 59.015 490.4C59.1083 490.12 59.2217 489.98 59.355 489.98C59.5017 489.98 59.575 490.087 59.575 490.3V492.52C59.575 492.707 59.6683 492.8 59.855 492.8H61.155C61.3683 492.8 61.475 492.893 61.475 493.08C61.475 493.267 61.3683 493.36 61.155 493.36H59.855C59.6683 493.36 59.575 493.453 59.575 493.64V501.1C59.575 501.393 59.6217 501.627 59.715 501.8C59.8083 501.96 59.9817 502.04 60.235 502.04C60.515 502.04 60.7417 501.9 60.915 501.62C61.1017 501.34 61.2217 500.887 61.275 500.26C61.3017 500.073 61.3883 499.98 61.535 499.98C61.695 499.98 61.775 500.08 61.775 500.28C61.735 501.307 61.5217 502.047 61.135 502.5C60.7617 502.953 60.3217 503.18 59.815 503.18ZM66.1108 503.18C65.4308 503.18 64.8174 502.953 64.2708 502.5C63.7374 502.033 63.3108 501.4 62.9908 500.6C62.6708 499.8 62.5108 498.907 62.5108 497.92C62.5108 496.933 62.6708 496.047 62.9908 495.26C63.3108 494.473 63.7441 493.847 64.2908 493.38C64.8374 492.913 65.4441 492.68 66.1108 492.68C66.7908 492.68 67.3974 492.913 67.9308 493.38C68.4774 493.847 68.9108 494.473 69.2308 495.26C69.5508 496.047 69.7108 496.933 69.7108 497.92C69.7108 498.907 69.5508 499.8 69.2308 500.6C68.9241 501.4 68.4974 502.033 67.9508 502.5C67.4041 502.953 66.7908 503.18 66.1108 503.18ZM66.1108 502.68C67.4974 502.68 68.1908 501.093 68.1908 497.92C68.1908 494.76 67.4974 493.18 66.1108 493.18C64.7241 493.18 64.0308 494.76 64.0308 497.92C64.0308 501.093 64.7241 502.68 66.1108 502.68ZM72.8348 503.18C72.5282 503.18 72.2015 503.14 71.8548 503.06C71.5082 502.993 71.2282 502.907 71.0148 502.8C70.8948 502.733 70.8348 502.62 70.8348 502.46L70.7748 500.22C70.7748 499.993 70.8615 499.88 71.0348 499.88C71.1815 499.88 71.2815 499.987 71.3348 500.2C71.5615 501.147 71.8348 501.793 72.1548 502.14C72.4882 502.487 72.8882 502.66 73.3548 502.66C73.7415 502.66 74.0615 502.513 74.3148 502.22C74.5682 501.913 74.6948 501.493 74.6948 500.96C74.6948 500.427 74.5482 499.953 74.2548 499.54C73.9615 499.127 73.4682 498.673 72.7748 498.18C72.0815 497.713 71.5748 497.247 71.2548 496.78C70.9348 496.3 70.7748 495.78 70.7748 495.22C70.7748 494.46 71.0415 493.847 71.5748 493.38C72.1082 492.913 72.8148 492.68 73.6948 492.68C73.9615 492.68 74.2215 492.713 74.4748 492.78C74.7282 492.833 74.9548 492.927 75.1548 493.06C75.2748 493.14 75.3348 493.247 75.3348 493.38L75.3748 495.58C75.3748 495.78 75.2948 495.88 75.1348 495.88C75.0415 495.88 74.9748 495.853 74.9348 495.8C74.8948 495.733 74.8615 495.653 74.8348 495.56C74.5682 494.693 74.3015 494.093 74.0348 493.76C73.7682 493.413 73.4415 493.24 73.0548 493.24C72.7082 493.24 72.4215 493.36 72.1948 493.6C71.9682 493.84 71.8548 494.14 71.8548 494.5C71.8548 494.967 71.9948 495.373 72.2748 495.72C72.5548 496.067 73.0615 496.493 73.7948 497C74.4615 497.48 74.9615 498 75.2948 498.56C75.6415 499.107 75.8148 499.707 75.8148 500.36C75.8148 501.213 75.5415 501.9 74.9948 502.42C74.4482 502.927 73.7282 503.18 72.8348 503.18ZM76.9072 503C76.7472 503 76.6672 502.927 76.6672 502.78C76.6672 502.647 76.7405 502.567 76.8872 502.54L77.1672 502.5C77.4472 502.46 77.6272 502.38 77.7072 502.26C77.8005 502.14 77.8472 501.94 77.8472 501.66V490.2C77.8472 489.96 77.8072 489.8 77.7272 489.72C77.6605 489.627 77.5339 489.567 77.3472 489.54L76.9272 489.48C76.7805 489.453 76.7072 489.373 76.7072 489.24C76.7072 489.107 76.7805 489.027 76.9272 489C77.3005 488.92 77.6139 488.827 77.8672 488.72C78.1205 488.613 78.3339 488.507 78.5072 488.4C78.7205 488.267 78.8805 488.2 78.9872 488.2C79.1339 488.2 79.2072 488.307 79.2072 488.52V493.82C79.2072 493.94 79.2472 494.013 79.3272 494.04C79.4072 494.053 79.5072 494.007 79.6272 493.9C80.1339 493.433 80.5805 493.113 80.9672 492.94C81.3539 492.767 81.7605 492.68 82.1872 492.68C82.8139 492.68 83.3072 492.893 83.6672 493.32C84.0272 493.733 84.2072 494.347 84.2072 495.16V501.66C84.2072 501.94 84.2472 502.14 84.3272 502.26C84.4205 502.367 84.6072 502.44 84.8872 502.48L85.3272 502.54C85.4739 502.567 85.5472 502.647 85.5472 502.78C85.5472 502.927 85.4672 503 85.3072 503H81.9472C81.7605 503 81.6672 502.927 81.6672 502.78C81.6672 502.647 81.7405 502.567 81.8872 502.54L82.1672 502.5C82.4472 502.46 82.6272 502.38 82.7072 502.26C82.8005 502.14 82.8472 501.94 82.8472 501.66V495.38C82.8472 494.727 82.7272 494.267 82.4872 494C82.2472 493.733 81.9072 493.6 81.4672 493.6C81.0405 493.6 80.6539 493.727 80.3072 493.98C79.9739 494.22 79.7072 494.547 79.5072 494.96C79.3072 495.36 79.2072 495.807 79.2072 496.3V501.66C79.2072 501.94 79.2472 502.14 79.3272 502.26C79.4205 502.38 79.6072 502.453 79.8872 502.48L80.4272 502.54C80.5739 502.567 80.6472 502.647 80.6472 502.78C80.6472 502.927 80.5672 503 80.4072 503H76.9072ZM89.8217 503.18C89.1417 503.18 88.5284 502.953 87.9817 502.5C87.4484 502.033 87.0217 501.4 86.7017 500.6C86.3817 499.8 86.2217 498.907 86.2217 497.92C86.2217 496.933 86.3817 496.047 86.7017 495.26C87.0217 494.473 87.4551 493.847 88.0017 493.38C88.5484 492.913 89.1551 492.68 89.8217 492.68C90.5017 492.68 91.1084 492.913 91.6417 493.38C92.1884 493.847 92.6217 494.473 92.9417 495.26C93.2617 496.047 93.4217 496.933 93.4217 497.92C93.4217 498.907 93.2617 499.8 92.9417 500.6C92.6351 501.4 92.2084 502.033 91.6617 502.5C91.1151 502.953 90.5017 503.18 89.8217 503.18ZM89.8217 502.68C91.2084 502.68 91.9017 501.093 91.9017 497.92C91.9017 494.76 91.2084 493.18 89.8217 493.18C88.4351 493.18 87.7417 494.76 87.7417 497.92C87.7417 501.093 88.4351 502.68 89.8217 502.68ZM94.4658 507.1C94.2658 507.1 94.1658 507.027 94.1658 506.88C94.1658 506.733 94.2524 506.653 94.4258 506.64L94.7058 506.6C94.9858 506.56 95.1658 506.48 95.2458 506.36C95.3391 506.24 95.3858 506.04 95.3858 505.76V494.94C95.3858 494.7 95.3458 494.54 95.2658 494.46C95.1991 494.367 95.0724 494.307 94.8858 494.28L94.4658 494.22C94.2924 494.207 94.2058 494.133 94.2058 494C94.2058 493.893 94.3124 493.82 94.5258 493.78C94.9391 493.713 95.2524 493.607 95.4658 493.46C95.6924 493.313 95.9258 493.133 96.1658 492.92C96.2858 492.8 96.3858 492.74 96.4658 492.74C96.5858 492.74 96.6458 492.82 96.6458 492.98V493.6C96.6458 493.693 96.6858 493.76 96.7658 493.8C96.8458 493.827 96.9391 493.787 97.0458 493.68L97.2658 493.46C97.5324 493.193 97.8058 493 98.0858 492.88C98.3658 492.747 98.6858 492.68 99.0458 492.68C99.6591 492.68 100.199 492.887 100.666 493.3C101.146 493.7 101.519 494.26 101.786 494.98C102.066 495.7 102.206 496.547 102.206 497.52C102.206 498.627 102.032 499.607 101.686 500.46C101.339 501.313 100.859 501.98 100.246 502.46C99.6458 502.94 98.9524 503.18 98.1658 503.18C97.7658 503.18 97.4124 503.107 97.1058 502.96C96.8658 502.853 96.7458 502.927 96.7458 503.18V505.76C96.7458 506.04 96.7858 506.227 96.8658 506.32C96.9591 506.427 97.1458 506.5 97.4258 506.54L98.1658 506.64C98.3124 506.667 98.3858 506.74 98.3858 506.86C98.3858 507.02 98.2858 507.1 98.0858 507.1H94.4658ZM98.2258 502.68C98.9724 502.68 99.5724 502.24 100.026 501.36C100.492 500.48 100.726 499.293 100.726 497.8C100.726 496.427 100.526 495.38 100.126 494.66C99.7258 493.94 99.1591 493.58 98.4258 493.58C97.9724 493.58 97.5791 493.767 97.2458 494.14C96.9124 494.513 96.7458 495.033 96.7458 495.7V500.74C96.7458 501.34 96.8791 501.813 97.1458 502.16C97.4258 502.507 97.7858 502.68 98.2258 502.68Z" fill="black"/>
<circle cx="7" cy="496" r="7" fill="black"/>
<circle cx="7" cy="13" r="7" fill="black"/>
<circle cx="7" cy="239" r="7" fill="black"/>
<circle cx="7" cy="126" r="7" fill="black"/>
<circle cx="7" cy="363" r="7" fill="black"/>
</svg>
